<svg xmlns="http://www.w3.org/2000/svg" width="27.119" height="27.009" viewBox="0 0 27.119 27.009"><defs><style>.a{fill:#fff;}</style></defs><path class="a" d="M56.444,36.263l-6.857-.9-.992-9.317a.408.408,0,0,0-.812,0L46.7,36.488v.18h0a1.471,1.471,0,0,0,1.489,1.485h0a.769.769,0,0,0,.316-.045l7.939-1.035A.407.407,0,0,0,56.444,36.263Z" transform="translate(-34.652 -22.105)"/><path class="a" d="M21.664,52.615a.842.842,0,0,0-1.669.225,13.545,13.545,0,0,0,2.661,6.436.812.812,0,0,0,.677.315.679.679,0,0,0,.5-.18.852.852,0,0,0,.18-1.17A11.575,11.575,0,0,1,21.664,52.615Z" transform="translate(-19.99 -37.533)"/><path class="a" d="M31.73,24.181a.679.679,0,0,0,.5-.18,12,12,0,0,1,5.639-2.34.84.84,0,1,0-.226-1.665,13.608,13.608,0,0,0-6.451,2.656.852.852,0,0,0-.18,1.17A.873.873,0,0,0,31.73,24.181Z" transform="translate(-25.952 -19.99)"/><path class="a" d="M23.929,31.092a.817.817,0,0,0-1.173.18,13.545,13.545,0,0,0-2.661,6.436.856.856,0,0,0,.722.945h.135a.91.91,0,0,0,.857-.72,11.756,11.756,0,0,1,2.346-5.626A.96.96,0,0,0,23.929,31.092Z" transform="translate(-19.99 -26.002)"/><path class="a" d="M52.567,21.715a11.81,11.81,0,0,1,5.639,2.34.679.679,0,0,0,.5.18.96.96,0,0,0,.677-.315.813.813,0,0,0-.18-1.17,13.608,13.608,0,0,0-6.451-2.656.858.858,0,0,0-.947.72A.883.883,0,0,0,52.567,21.715Z" transform="translate(-37.451 -19.99)"/><path class="a" d="M74.185,51.895a.858.858,0,0,0-.947.72,11.756,11.756,0,0,1-2.346,5.626.813.813,0,0,0,.18,1.17.679.679,0,0,0,.5.18.96.96,0,0,0,.677-.315,13.546,13.546,0,0,0,2.661-6.436A.884.884,0,0,0,74.185,51.895Z" transform="translate(-47.892 -37.533)"/><path class="a" d="M38,73.232a11.81,11.81,0,0,1-5.639-2.34.838.838,0,1,0-.992,1.35A13.608,13.608,0,0,0,37.823,74.9h.135a.91.91,0,0,0,.857-.72A.972.972,0,0,0,38,73.232Z" transform="translate(-26.046 -47.888)"/><path class="a" d="M73.309,37.949a.838.838,0,0,0,.857.72H74.3a.856.856,0,0,0,.722-.945,13.545,13.545,0,0,0-2.661-6.436.838.838,0,0,0-1.353.99A12.313,12.313,0,0,1,73.309,37.949Z" transform="translate(-47.908 -26.018)"/><path class="a" d="M58.355,70.869a12,12,0,0,1-5.639,2.34.856.856,0,0,0-.722.945.838.838,0,0,0,.857.72h.135a13.608,13.608,0,0,0,6.451-2.656.852.852,0,0,0,.18-1.17A.893.893,0,0,0,58.355,70.869Z" transform="translate(-37.556 -47.865)"/></svg>