<svg xmlns="http://www.w3.org/2000/svg" width="24" height="17" viewBox="0 0 24 17"><defs><style>.a{fill:#fff;fill-rule:evenodd;}</style></defs><path class="a" d="M42.36,28H21.64A1.579,1.579,0,0,0,20,29.549v13.9A1.579,1.579,0,0,0,21.64,45H42.36A1.579,1.579,0,0,0,44,43.451v-13.9A1.579,1.579,0,0,0,42.36,28Zm.12,15.451a.168.168,0,0,1-.16.151H21.64a.168.168,0,0,1-.16-.151v-13.9a.168.168,0,0,1,.16-.151H42.36a.168.168,0,0,1,.16.151v13.9Z" transform="translate(-20 -28)"/><path class="a" d="M37.759,33.61l-5.873,6.357a.153.153,0,0,1-.179,0L25.835,33.61c-.179-.153-.357.191-.2.383l5.745,8.616a.494.494,0,0,0,.868,0l5.745-8.616C38.117,33.763,37.938,33.419,37.759,33.61Z" transform="translate(-20.032 -29.99)"/></svg>