<svg xmlns="http://www.w3.org/2000/svg" width="25" height="25" viewBox="0 0 25 25"><defs><style>.a{fill:#fff;}</style></defs><path class="a" d="M41.25,35.625h0a6.242,6.242,0,0,0,6.25-6.25V26.25A6.242,6.242,0,0,0,41.25,20h0A6.242,6.242,0,0,0,35,26.25v3.125A6.242,6.242,0,0,0,41.25,35.625ZM36.583,26.25a4.806,4.806,0,0,1,1.375-3.333,4.659,4.659,0,0,1,3.333-1.375,4.731,4.731,0,0,1,3.333,1.375A4.659,4.659,0,0,1,46,26.25v3.125a4.806,4.806,0,0,1-1.375,3.333,4.659,4.659,0,0,1-3.333,1.375,4.731,4.731,0,0,1-3.333-1.375,4.659,4.659,0,0,1-1.375-3.333Z" transform="translate(-28.75 -20)"/><path class="a" d="M35.625,61v4.792L29.167,61C22.375,61.917,20,65.458,20,65.458v1.875a1.583,1.583,0,0,0,1.583,1.583H43.917A1.1,1.1,0,0,0,45,67.833V65.5S42.583,61.875,35.625,61Z" transform="translate(-20 -43.917)"/></svg>